<?xml version="1.0" encoding="UTF-8" standalone="no"?>
<!-- Created with Inkscape (http://www.inkscape.org/) -->

<svg
   xmlns:dc="http://purl.org/dc/elements/1.1/"
   xmlns:cc="http://creativecommons.org/ns#"
   xmlns:rdf="http://www.w3.org/1999/02/22-rdf-syntax-ns#"
   xmlns:svg="http://www.w3.org/2000/svg"
   xmlns="http://www.w3.org/2000/svg"
   xmlns:sodipodi="http://sodipodi.sourceforge.net/DTD/sodipodi-0.dtd"
   xmlns:inkscape="http://www.inkscape.org/namespaces/inkscape"
   width="164"
   height="190"
   id="svg2"
   version="1.1"
   inkscape:version="0.48.5 r10040"
   sodipodi:docname="logo----.svg"
   inkscape:export-filename="C:\Users\user1\Documents\me online\logo.png"
   inkscape:export-xdpi="90"
   inkscape:export-ydpi="90">
  <defs
     id="defs4" />
  <sodipodi:namedview
     id="base"
     pagecolor="#ffffff"
     bordercolor="#666666"
     borderopacity="1.0"
     inkscape:pageopacity="0.0"
     inkscape:pageshadow="2"
     inkscape:zoom="1.5105921"
     inkscape:cx="57.779752"
     inkscape:cy="134.18321"
     inkscape:document-units="px"
     inkscape:current-layer="flowRoot3821"
     showgrid="false"
     showborder="true"
     inkscape:showpageshadow="true"
     inkscape:window-width="1366"
     inkscape:window-height="716"
     inkscape:window-x="-8"
     inkscape:window-y="-8"
     inkscape:window-maximized="1" />
  <metadata
     id="metadata7">
    <rdf:RDF>
      <cc:Work
         rdf:about="">
        <dc:format>image/svg+xml</dc:format>
        <dc:type
           rdf:resource="http://purl.org/dc/dcmitype/StillImage" />
        <dc:title></dc:title>
      </cc:Work>
    </rdf:RDF>
  </metadata>
  <g
     inkscape:label="Layer 1"
     inkscape:groupmode="layer"
     id="layer1"
     transform="translate(0,-862.36218)">
    <g
       transform="translate(33.399255,74.220568)"
       style="font-size:40px;font-style:normal;font-weight:normal;line-height:125%;letter-spacing:0px;word-spacing:0px;fill:#000000;fill-opacity:1;stroke:none;font-family:Sans"
       id="flowRoot2985">
      <g
         transform="matrix(0,1,-1,0,0,0)"
         style="line-height:125%;fill:#000000;font-family:Sans"
         id="text3800">
        <flowRoot
           xml:space="preserve"
           id="flowRoot3813"
           style="font-size:40px;font-style:normal;font-weight:normal;line-height:125%;letter-spacing:0px;word-spacing:0px;fill:#000000;fill-opacity:1;stroke:none;font-family:Sans"
           transform="matrix(0,-1,1,0,-74.220568,33.399255)"><flowRegion
             id="flowRegion3815"><rect
               id="rect3817"
               width="258.63626"
               height="101.20549"
               x="243.37511"
               y="-11.901897" /></flowRegion><flowPara
             id="flowPara3819"
             style="font-size:144px;font-style:normal;font-variant:normal;font-weight:normal;font-stretch:normal;font-family:Work Sans;-inkscape-font-specification:Work Sans">g</flowPara></flowRoot>        <g
           transform="matrix(0,-1,1,0,-74.220568,33.399255)"
           style="font-size:40px;font-style:normal;font-weight:normal;line-height:125%;letter-spacing:0px;word-spacing:0px;fill:#000000;fill-opacity:1;stroke:none;font-family:Sans"
           id="flowRoot3821">
          <flowRoot
             xml:space="preserve"
             id="flowRoot3832"
             style="font-size:40px;font-style:normal;font-weight:normal;line-height:125%;letter-spacing:0px;word-spacing:0px;fill:#000000;fill-opacity:1;stroke:none;font-family:Sans"
             transform="translate(0.47000567,-0.40498059)"><flowRegion
               id="flowRegion3834"><rect
                 id="rect3836"
                 width="184.74017"
                 height="133.33421"
                 x="265.8652"
                 y="-43.227406" /></flowRegion><flowPara
               id="flowPara3838"></flowPara></flowRoot>          <g
             transform="matrix(0,1,-1,0,0,0)"
             style="line-height:125%;fill:#000000;font-family:Sans"
             id="text3852">
            <path
               d="m 924.78571,-55.252281 11.53125,-1.546875 0,-95.132814 -12.65625,-2.53125 0,-6.11719 23.34375,-2.95312 2.8125,1.61719 0,63.140621 -0.35157,10.828125 31.28907,-32.273436 -10.61719,-0.98438 0,-7.45312 33.18753,0 0,7.45312 -10.68753,1.125 -23.90625,24.046879 29.74219,39.304687 9.56249,1.476563 0,5.976562 -34.10156,0 0,-5.976562 9.77344,-1.617188 -23.13281,-32.414062 -11.17969,11.109375 0.42188,13.640625 0,7.875 10.125,1.40625 0,5.976562 -35.15625,0 z"
               style="font-size:144px;font-variant:normal;font-stretch:normal;font-family:Merriweather;-inkscape-font-specification:Merriweather"
               id="path4023" />
          </g>
          <g
             transform="scale(-1,1)"
             style="line-height:125%;fill:#000000;font-family:Sans"
             id="text3864">
            <path
               d="m -24.147995,917.02936 c -1.125022,10e-5 -2.226583,-0.19912 -3.304687,-0.59766 -1.078144,-0.39834 -2.027362,-0.96084 -2.847657,-1.6875 -0.820328,-0.72646 -1.476578,-1.6288 -1.96875,-2.70703 -0.492202,-1.07802 -0.738295,-2.29677 -0.738281,-3.65625 -1.4e-5,-1.45302 0.316392,-2.81239 0.949219,-4.07812 0.632797,-1.26552 1.44139,-2.35536 2.425781,-3.26954 0.984357,-0.91394 2.097637,-1.62879 3.339844,-2.14453 1.242165,-0.5155 2.49607,-0.77332 3.761719,-0.77343 3.093722,1.1e-4 5.355438,0.85558 6.785156,2.5664 1.429655,1.71105 2.144498,3.76183 2.144531,6.15235 -3.3e-5,1.54698 -0.304721,2.95323 -0.914062,4.21875 -0.609407,1.26572 -1.406282,2.33213 -2.390625,3.19921 -0.984405,0.86729 -2.109404,1.54698 -3.375,2.03907 -1.265651,0.49228 -2.554712,0.73838 -3.867188,0.73828 z m -3.585937,33.67969 -9.773438,-5.20313 0,-4.21875 19.757813,-5.625 3.234375,1.40625 0,79.80468 c -3.3e-5,5.4844 -0.597689,10.3945 -1.792969,14.7305 -1.195342,4.3359 -2.906278,8.0156 -5.132813,11.039 -2.226586,3.0234 -4.910177,5.332 -8.050781,6.9258 -3.140639,1.5937 -6.656261,2.3906 -10.546875,2.3906 -0.468757,0 -1.101568,-0.023 -1.898437,-0.07 -0.79688,-0.047 -1.582035,-0.1172 -2.355469,-0.2109 -0.77344,-0.094 -1.488283,-0.211 -2.144531,-0.3516 -0.65625,-0.1406 -1.078125,-0.2813 -1.265625,-0.4218 l 0,-9.7032 c 0.375,0.1406 0.914062,0.2578 1.617187,0.3516 0.703123,0.094 1.441404,0.1758 2.214844,0.2461 0.773433,0.07 1.511714,0.1172 2.214844,0.1406 0.703118,0.023 1.265618,0.035 1.6875,0.035 2.24999,-10e-5 4.160144,-0.4336 5.730468,-1.3008 1.570298,-0.8672 2.835922,-2.3203 3.796875,-4.3594 0.96092,-2.0391 1.652326,-4.7227 2.074219,-8.0508 0.421856,-3.3281 0.632793,-7.4531 0.632813,-12.375 z"
               style="font-size:144px;font-variant:normal;font-stretch:normal;font-family:Merriweather;-inkscape-font-specification:Merriweather"
               id="path4020" />
          </g>
          <g
             transform="matrix(0,1,-1,0,0,0)"
             style="line-height:125%;fill:#000000;font-family:Sans"
             id="text4000">
            <path
               d="m 862.73828,-21.419415 c -10e-6,-2.156264 0.38671,-4.218762 1.16016,-6.1875 0.77342,-1.968758 1.74608,-3.773443 2.91797,-5.414062 1.17186,-1.640628 2.4492,-3.10547 3.83203,-4.394531 1.38279,-1.289062 2.70701,-2.33203 3.97265,-3.128907 -2.10939,-0.749996 -3.70314,-1.617183 -4.78125,-2.601562 -1.07814,-0.984369 -1.83985,-2.015618 -2.28515,-3.09375 -0.44533,-1.078116 -0.69142,-2.179677 -0.73828,-3.304688 -0.0469,-1.124987 -0.0703,-2.179673 -0.0703,-3.164062 -10e-6,-0.843734 0.18749,-1.945296 0.5625,-3.304688 0.37499,-1.359355 0.92577,-2.812478 1.65235,-4.359375 0.72654,-1.54685 1.64061,-3.117161 2.74218,-4.710937 1.10155,-1.593721 2.35545,-3.023407 3.76172,-4.289063 -3.51564,-2.109341 -6.29298,-4.933557 -8.33203,-8.472656 -2.03907,-3.539019 -3.0586,-7.863233 -3.05859,-12.972656 -10e-6,-4.828067 0.92577,-9.023375 2.77734,-12.585938 1.85155,-3.56243 4.28905,-6.51555 7.3125,-8.85937 3.02342,-2.34368 6.45701,-4.10149 10.30078,-5.27344 3.84372,-1.1718 7.73434,-1.80461 11.67188,-1.89844 3.98433,-0.0937 7.7226,0.31649 11.21484,1.23047 3.49213,0.91414 6.57416,2.37898 9.2461,4.39453 0.93743,-1.07805 2.30852,-1.95695 4.11328,-2.63672 1.80462,-0.67961 4.20696,-1.01945 7.20703,-1.01953 l 8.50781,0 0,10.61719 -13.78125,0 c 0.98431,1.78132 1.74602,3.79694 2.28516,6.04687 0.53899,2.250064 0.80852,4.710999 0.80859,7.382815 -7e-5,4.640676 -0.85554,8.753954 -2.56641,12.339844 -1.711,3.585977 -4.00787,6.597693 -6.89062,9.035156 -2.88287,2.437532 -6.21099,4.289093 -9.98438,5.554688 -3.77348,1.265652 -7.7227,1.898464 -11.84765,1.898437 -5.53129,2.7e-5 -10.47659,-0.867159 -14.83594,-2.601562 -0.28127,0.750029 -0.48049,1.558622 -0.59766,2.425781 -0.11721,0.867214 -0.18752,1.710963 -0.21093,2.53125 -0.0235,0.820336 -0.0235,1.593773 0,2.320313 0.0234,0.726584 0.0351,1.324239 0.0351,1.792968 -2e-5,2.531268 0.66795,4.500016 2.00391,5.90625 1.33591,1.406263 3.66794,2.250013 6.99609,2.53125 2.10934,0.187512 4.64059,0.292981 7.59375,0.316407 2.95308,0.02345 6.46871,0.03517 10.54688,0.03516 4.35932,1.2e-5 8.08588,0.339855 11.17969,1.019531 3.09368,0.679698 5.66008,1.58204 7.69921,2.707031 2.03899,1.125007 3.64446,2.437506 4.81641,3.9375 1.1718,1.500003 2.06242,3.070314 2.67188,4.710938 0.60929,1.640622 0.98429,3.292965 1.125,4.957031 0.14054,1.664055 0.21085,3.246085 0.21093,4.746094 -8e-5,4.031235 -0.84383,7.687482 -2.53125,10.96875 -1.68757,3.281225 -4.11335,6.093722 -7.27734,8.4375 -3.16413,2.3437177 -7.03131,4.1601221 -11.60156,5.4492187 -4.57037,1.2890258 -9.76177,1.93355644 -15.57422,1.93359378 -4.21879,-3.734e-5 -8.3555,-0.32816201 -12.41016,-0.98437498 -4.05471,-0.6562857 -7.6758,-1.7930033 -10.86328,-3.4101563 -3.18752,-1.6172188 -5.76564,-3.7734666 -7.73437,-6.4687502 -1.96876,-2.695336 -2.95314,-6.058614 -2.95313,-10.089844 z m 33.75,-50.695312 c 2.90621,3.4e-5 5.36714,-0.398403 7.38281,-1.195313 2.01558,-0.796838 3.64448,-2.003868 4.88672,-3.621093 1.24213,-1.617147 2.14448,-3.63277 2.70703,-6.046875 0.56245,-2.414015 0.8437,-5.238231 0.84375,-8.472657 -5e-5,-6.984314 -1.50005,-12.163995 -4.5,-15.539065 -3.00005,-3.37492 -7.50004,-5.06242 -13.5,-5.0625 -2.34378,8e-5 -4.53519,0.30476 -6.57422,0.91407 -2.03909,0.60944 -3.82034,1.62897 -5.34375,3.05859 -1.52346,1.42976 -2.71877,3.32819 -3.58593,5.69531 -0.86721,2.36725 -1.30081,5.332092 -1.30078,8.894533 -3e-5,2.906303 0.35153,5.660206 1.05468,8.261719 0.7031,2.601607 1.81638,4.875042 3.33985,6.820312 1.52341,1.945351 3.49215,3.480506 5.90625,4.605469 2.41402,1.125035 5.30855,1.687534 8.68359,1.6875 z m -20.67187,46.195312 c -3e-5,3.187485 0.60935,5.894514 1.82812,8.121094 1.21873,2.22654 2.85935,4.031226 4.92188,5.414063 2.06247,1.382785 4.45309,2.3905969 7.17187,3.0234372 2.71871,0.6327835 5.60152,0.9491894 8.64844,0.9492188 3.79683,-2.94e-5 7.20698,-0.3164353 10.23047,-0.9492188 3.02338,-0.6328403 5.58978,-1.5820582 7.69922,-2.8476562 2.10931,-1.265649 3.72649,-2.871116 4.85156,-4.816406 1.12493,-1.945332 1.68743,-4.230486 1.6875,-6.855469 -7e-5,-2.250012 -0.25788,-4.253916 -0.77344,-6.011719 -0.51569,-1.757818 -1.5235,-3.246098 -3.02344,-4.464844 -1.50006,-1.218752 -3.59771,-2.144532 -6.29297,-2.777343 -2.69536,-0.632813 -6.2227,-0.949219 -10.58203,-0.949219 l -8.85937,-0.140625 c -2.76566,0 -5.23832,-0.08203 -7.41797,-0.246094 -2.17972,-0.164061 -4.13675,-0.386717 -5.87109,-0.667969 -0.56253,0.656251 -1.08987,1.394532 -1.58204,2.214844 -0.49221,0.820311 -0.93752,1.75781 -1.33593,2.8125 -0.39846,1.054683 -0.71487,2.249994 -0.94922,3.585938 -0.2344,1.335929 -0.35159,2.871083 -0.35156,4.605468 z"
               style="font-size:144px;font-variant:normal;font-stretch:normal;font-family:Merriweather;-inkscape-font-specification:Merriweather"
               id="path4017" />
          </g>
        </g>
      </g>
    </g>
  </g>
</svg>
